<svg width="40" height="40" viewBox="0 0 100 100" fill="none" xmlns="http://www.w3.org/2000/svg">
    <path fill-rule="evenodd" clip-rule="evenodd"
        d="M69 18.5C69 28.0711 61.7318 35.9446 52.4137 36.9022V91.8621C52.4231 93.4594 51.7759 95.0517 49.8621 99.5172C47.9483 95.6897 47.3167 93.6458 47.3103 91.8621V36.7261C38.6131 35.2146 32 27.6296 32 18.5C32 8.28273 40.2827 0 50.5 0C60.7173 0 69 8.28273 69 18.5ZM45.4545 25.2273C51.0276 25.2273 55.5455 20.7094 55.5455 15.1364C55.5455 9.56331 51.0276 5.04545 45.4545 5.04545C39.8815 5.04545 35.3636 9.56331 35.3636 15.1364C35.3636 20.7094 39.8815 25.2273 45.4545 25.2273Z"
        fill="#EF5656" />
</svg>